<svg width="23" height="22" viewBox="0 0 23 22" fill="none" xmlns="http://www.w3.org/2000/svg">
<path d="M20.6557 8.41256C20.5981 8.24274 20.4919 8.09353 20.3505 7.98335C20.209 7.87316 20.0383 7.80681 19.8596 7.79251L14.6304 7.377L12.3676 2.36798C12.2955 2.20665 12.1783 2.06963 12.0301 1.97344C11.8819 1.87726 11.709 1.82602 11.5323 1.82593C11.3556 1.82583 11.1826 1.87687 11.0343 1.9729C10.886 2.06892 10.7686 2.20582 10.6964 2.36707L8.43357 7.377L3.20442 7.79251C3.02872 7.80642 2.86076 7.87066 2.72063 7.97754C2.58049 8.08442 2.47411 8.2294 2.41421 8.39516C2.35432 8.56091 2.34344 8.74041 2.38289 8.91218C2.42234 9.08395 2.51044 9.24072 2.63665 9.36373L6.50096 13.1308L5.13428 19.0488C5.09278 19.2279 5.10608 19.4154 5.17245 19.5869C5.23882 19.7584 5.35521 19.9059 5.50649 20.0105C5.65778 20.115 5.83699 20.1716 6.02086 20.173C6.20473 20.1744 6.38478 20.1205 6.53764 20.0183L11.532 16.6888L16.5263 20.0183C16.6826 20.1221 16.8668 20.1755 17.0543 20.1713C17.2418 20.1672 17.4235 20.1058 17.5751 19.9953C17.7266 19.8848 17.8407 19.7306 17.902 19.5533C17.9632 19.3761 17.9687 19.1843 17.9178 19.0039L16.2401 13.1336L20.4007 9.38941C20.6731 9.14359 20.7731 8.76019 20.6557 8.41256Z" fill="#F3CD03"/>
</svg>
